<svg xmlns="http://www.w3.org/2000/svg" viewBox="0 0 1024 1024" xml:space="preserve"><circle cx="512" cy="512" r="512" fill="#890C00"/><path fill="#FCE7C2" d="M189.018 818.719c-.003-98.636-.114-196.796.157-294.954.029-10.608 1.745-21.302 3.613-31.79 2.292-12.876 4.688-25.855 8.613-38.292 6.79-21.518 18.236-40.627 32.752-58 15.358-18.38 33.385-33.245 54.542-44.461 17.031-9.029 34.905-15.046 53.894-18.77 15.235-2.987 30.36-1.563 45.528-2.15 6.43-.248 7.26-.847 7.266-7.191.014-14.666-.023-29.332.038-43.997.008-1.866.477-3.729.82-6.23 5.652 2.45 10.543 4.562 15.427 6.689 19.4 8.447 38.763 16.982 58.212 25.315 10.39 4.45 20.9 8.622 31.406 12.796 9.883 3.926 19.494 2.701 28.996-1.64 16.9-7.721 33.825-15.387 50.825-22.882 15.595-6.875 31.304-13.494 46.975-20.232 0 18.413-.16 36.578.095 54.737.077 5.55-1.153 8.236-7.24 9.986-17.368 4.993-34.15 11.935-49.664 21.225-12.931 7.742-25.936 15.803-37.327 25.568-15.744 13.495-30.025 28.698-44.886 43.218-5.72 5.588-11.298 11.321-16.969 16.96-3.299 3.281-6.341 3.112-9.86-.006-9.027-8-17.73-16.462-27.38-23.64-10.896-8.103-23.789-12.319-36.922-15.643-11.542-2.922-23.373-3.406-34.968-2.178-18.696 1.98-35.921 8.915-51.203 19.962-23.173 16.75-38.277 39.157-45.146 66.93-1.72 6.955-3.684 14.152-3.557 21.202.329 18.251 1.677 36.527 9.97 53.338 8.137 16.494 18.923 30.911 33.406 42.505 11.46 9.174 24.076 15.982 38.129 20.12 14.324 4.218 28.709 6.031 43.783 3.84 22.54-3.276 41.955-12.36 58.628-27.735 6.485-5.98 13.936-9.85 23.173-9.145 24.01 1.833 43.143-8.057 59.524-24.716 11.8-11.999 23.727-23.872 35.724-35.673 1.148-1.13 3.196-1.343 4.827-1.982.56 1.524 1.601 3.046 1.608 4.573.098 22.353-5.891 43.288-16.39 62.752-4.871 9.033-11.025 17.663-17.96 25.226-10.547 11.504-22.336 21.863-33.492 32.816-9.706 9.53-20.665 17.267-32.491 23.934-13.06 7.363-26.444 13.89-41.064 17.514-8.705 2.158-17.38 4.854-26.235 5.887-10.66 1.244-21.492 1.138-32.254 1.337-23.344.432-45.7-4.484-66.795-14.199-13.96-6.429-27.3-14.205-40.823-21.328V821.33c-1.57.25-2.66.574-3.75.576-22.498.03-44.996.027-67.494.015-1.926 0-4.29.537-4.061-3.202"/><path fill="#FCE7C2" d="M543.331 291.415c-5.912 2.563-11.714 4.526-17.016 7.407-8.943 4.86-17.185 3.62-26.089-.447-15.662-7.152-31.724-13.425-47.558-20.207-12.801-5.483-25.476-11.262-38.275-16.75C399.64 255.095 384.79 249 370.025 242.7c-10.728-4.577-21.376-9.34-32.075-13.985-2.551-1.108-5.163-2.075-7.743-3.116-3.55-1.432-5.436-3.974-5.663-7.886-.235-4.041 2.609-5.561 5.485-6.824a2567 2567 0 0 1 37.065-15.958c13.883-5.838 27.826-11.537 41.756-17.263 18.04-7.415 36.106-14.762 54.135-22.204 12.719-5.25 25.485-10.401 38.057-15.986 9.07-4.03 17.466-2.472 26.144 1.188 23.128 9.752 46.378 19.213 69.564 28.826 20.3 8.417 40.57 16.908 60.873 25.318 12.862 5.328 25.735 10.63 38.653 15.82 5.974 2.399 8.284 5.903 4.452 12.287-2.57 4.282-6.822 7.533-10.15 11.394-1.145 1.328-2.487 3.095-2.514 4.682-.205 12.492-.213 24.99-.007 37.482.031 1.884 1.104 4.065 2.357 5.551 3.1 3.68 4.978 7.547 4.953 12.525-.025 5.086 1.022 10.188.837 15.256-.071 1.96-1.867 5.058-3.51 5.559-8.443 2.57-17.195 3.514-25.768.742-2.035-.658-4.828-3.374-4.832-5.15-.016-7.58.813-15.17 1.515-22.74.112-1.21.841-2.78 1.797-3.426 5.258-3.557 4.988-8.781 4.91-14.174-.155-10.65-.046-21.302-.046-32.958-43.307 16.269-85.148 34.455-126.939 53.755"/><path fill="#FCE6C2" d="M745.316 367.61c10.854 7.143 21.72 13.622 31.865 21.082 13.818 10.16 24.776 23.164 34.053 37.555 2.313 3.588 4.44 7.305 6.464 11.065 2.127 3.954 1.434 7.096-2.703 9.564-15.508 9.251-30.894 18.707-46.382 27.993-7.632 4.575-9.404 3.852-14.091-3.729-14.61-23.63-35.273-39.07-62.573-44.998-27.158-5.897-52.213-.244-73.198 17.607-16.128 13.719-30.341 29.694-45.357 44.714-15.065 15.069-30.017 30.251-45.13 45.27-5.047 5.014-10.204 9.971-15.73 14.436-8.74 7.062-18.796 7.512-29.382 5.024-18.436-4.332-31.08-19.63-31.38-37.435-.136-8.115 3.15-15.55 8.862-21.359 17.403-17.693 35.117-35.08 52.565-52.73 12.162-12.303 23.64-25.315 36.212-37.175 24.8-23.397 53.597-40.03 86.855-48.414 17.658-4.45 35.774-5.028 53.676-3.542 17.386 1.444 34.557 5.264 50.456 13.188 1.451.723 3.068 1.114 4.918 1.885m-71.51 266.819c19.646-2.086 37.062-9.012 52.615-20.15 11.5-8.236 20.697-18.857 27.715-31.24 2.985-5.269 6.506-6.402 11.857-3.537 16.405 8.783 32.76 17.659 49.158 26.457 3.542 1.901 4.492 4.733 2.872 8.21-5.806 12.468-13.216 23.846-22.02 34.496-12.362 14.957-27.051 27.07-43.52 36.933-13.662 8.182-28.244 14.8-44.023 17.773-11.731 2.21-23.625 3.749-35.514 4.884-27.335 2.61-53.406-2.673-78.736-12.968-18.402-7.479-34.67-18.082-49.312-31.318-4.234-3.828-4.21-8.006-.133-11.888 12.621-12.022 24.191-24.949 34.23-39.214 1.414-2.01 2.37-4.37 3.921-6.25 2.993-3.625 6.214-3.752 9.831-.704 13.837 11.658 28.835 21.065 46.68 25.524 11.2 2.8 22.492 3.237 34.379 2.991"/></svg>