<svg width="1600" height="1000" viewBox="0 0 1600 1000" fill="none" xmlns="http://www.w3.org/2000/svg">
<path d="M47.6146 411.849L1552.39 411.849" stroke="#2D2F2F" stroke-width="4"/>
<path d="M47.6146 588.151L1552.39 588.151" stroke="#2D2F2F" stroke-width="4"/>
<path d="M49.6146 410.807V589.812" stroke="#2D2F2F" stroke-width="3.99338"/>
<path d="M1550.39 411.854V587.859" stroke="#2D2F2F" stroke-width="3.99326"/>
<path d="M118.359 500L647.364 500" stroke="#2D2F2F" stroke-width="1.99835"/>
<path d="M485.516 527.323H685.052" stroke="#2D2F2F" stroke-width="2"/>
<path d="M789.802 499.005L991.599 499.005" stroke="#2D2F2F" stroke-width="2"/>
<path d="M1075.6 558.146H1192.61" stroke="#2D2F2F" stroke-width="1.99175"/>
<path d="M296.823 411.411V501.052" stroke="#2D2F2F" stroke-width="2"/>
<path d="M516.802 412.859V499.536" stroke="#2D2F2F" stroke-width="2"/>
<path d="M647.797 413.339V501.047" stroke="#2D2F2F" stroke-width="2"/>
<path d="M719.802 411.87L719.802 499.516" stroke="#2D2F2F" stroke-width="2"/>
<path d="M1036.59 413.948V499.521" stroke="#2D2F2F" stroke-width="2"/>
<path d="M296.828 526.344V587.901" stroke="#2D2F2F" stroke-width="2"/>
<path d="M396.802 526.344V586.901" stroke="#2D2F2F" stroke-width="2"/>
<path d="M485.51 527.156V586.792" stroke="#2D2F2F" stroke-width="2"/>
<path d="M521.411 527.156L521.411 587.906" stroke="#2D2F2F" stroke-width="2"/>
<path d="M550.411 527.297V586.901" stroke="#2D2F2F" stroke-width="2"/>
<path d="M589.411 527.312V586.901" stroke="#2D2F2F" stroke-width="2"/>
<path d="M618.505 527.328V586.901" stroke="#2D2F2F" stroke-width="2"/>
<path d="M685.052 526.323V588.182" stroke="#2D2F2F" stroke-width="2"/>
<path d="M859.708 526.609V588.458" stroke="#2D2F2F" stroke-width="2"/>
<path d="M1323.59 526.349L1323.59 588.031" stroke="#2D2F2F" stroke-width="2"/>
<path d="M1274.85 525.958V586.786" stroke="#2D2F2F" stroke-width="2"/>
<path d="M1226.09 526.219V587.76" stroke="#2D2F2F" stroke-width="2"/>
<path d="M1193.1 527.74V587.745" stroke="#2D2F2F" stroke-width="1.99067"/>
<path d="M959.615 527.151V588.026" stroke="#2D2F2F" stroke-width="2"/>
<path d="M1226.1 497.443H1550.1" stroke="#2D2F2F" stroke-width="1.99826"/>
<path d="M688.031 411.844V473.698" stroke="#2D2F2F" stroke-width="2"/>
<path d="M685.521 527.469H1037.52" stroke="#2D2F2F" stroke-width="1.99955"/>
<path d="M396.807 413.302V499.979" stroke="#2D2F2F" stroke-width="2"/>
<path d="M485.516 412.859V499.536" stroke="#2D2F2F" stroke-width="2"/>
<path d="M554.802 412.839V499.516" stroke="#2D2F2F" stroke-width="2"/>
<path d="M582.302 413.359V500.036" stroke="#2D2F2F" stroke-width="2"/>
<path d="M621.417 412.839V499.516" stroke="#2D2F2F" stroke-width="2"/>
<path d="M826.708 527.146V588.995" stroke="#2D2F2F" stroke-width="2"/>
<path d="M788.802 526.339V588.182" stroke="#2D2F2F" stroke-width="2"/>
<path d="M752.802 526.339V588.182" stroke="#2D2F2F" stroke-width="2"/>
<path d="M890.203 527.156V587.906" stroke="#2D2F2F" stroke-width="2"/>
<path d="M923.615 527.146V588.995" stroke="#2D2F2F" stroke-width="2"/>
<path d="M1037.59 526.62V588.635" stroke="#2D2F2F" stroke-width="1.99698"/>
<path d="M922.802 411.339L923.802 499.333" stroke="#2D2F2F" stroke-width="1.99645"/>
<path d="M858.708 411.828L859.708 499.823" stroke="#2D2F2F" stroke-width="1.99645"/>
<path d="M789.802 411.328L790.802 499.323" stroke="#2D2F2F" stroke-width="1.99645"/>
<path d="M1443.59 497.443V409.849" stroke="#2D2F2F" stroke-width="2"/>
<path d="M118.359 527.339L396.37 527.339" stroke="#2D2F2F" stroke-width="1.99686"/>
<path d="M442.516 412.807V499.479" stroke="#2D2F2F" stroke-width="2"/>
<path d="M346.818 413.302V499.979" stroke="#2D2F2F" stroke-width="2"/>
<path d="M85.8333 410.297V586.307" stroke="#2D2F2F" stroke-width="1.99451"/>
<path d="M119.349 411.333V500.974" stroke="#2D2F2F" stroke-width="2"/>
<path d="M253.823 410.401V500.042" stroke="#2D2F2F" stroke-width="2"/>
<path d="M207.823 410.807V500.448" stroke="#2D2F2F" stroke-width="2"/>
<path d="M163.589 411.333V500.974" stroke="#2D2F2F" stroke-width="2"/>
<path d="M253.828 526.615V588.172" stroke="#2D2F2F" stroke-width="2"/>
<path d="M207.828 526.615V588.172" stroke="#2D2F2F" stroke-width="2"/>
<path d="M163.589 527.474V589.031" stroke="#2D2F2F" stroke-width="2"/>
<path d="M119.354 526.615V588.172" stroke="#2D2F2F" stroke-width="2"/>
<path d="M346.812 527.151V588.708" stroke="#2D2F2F" stroke-width="2"/>
<path d="M991.599 499.036L1076.6 499.036" stroke="#2D2F2F" stroke-width="2"/>
<path d="M1076.6 413.469L1076.6 589.281" stroke="#2D2F2F" stroke-width="2"/>
<path d="M1123.59 439.745L1123.59 484.391" stroke="#2D2F2F" stroke-width="2"/>
<path d="M1158.35 440.036V484.047" stroke="#2D2F2F" stroke-width="1.9845"/>
<path d="M1193.09 412.844V497.453" stroke="#2D2F2F" stroke-width="2"/>
<path d="M1226.09 411.411V497.417" stroke="#2D2F2F" stroke-width="1.99927"/>
<path d="M1323.59 497.443V409.849" stroke="#2D2F2F" stroke-width="2"/>
<path d="M1226.1 527.146H1550.1" stroke="#2D2F2F" stroke-width="1.99826"/>
<path d="M1356.59 527.474L1356.59 589.161" stroke="#2D2F2F" stroke-width="2"/>
<path d="M1443.59 526.219L1443.59 587.901" stroke="#2D2F2F" stroke-width="2"/>
<path d="M1075.6 440.031H1192.61" stroke="#2D2F2F" stroke-width="1.99175"/>
<path d="M1122.6 484.385H1194.1" stroke="#2D2F2F" stroke-width="2"/>
</svg>
