<svg width="1600" height="1000" viewBox="0 0 1600 1000" fill="none" xmlns="http://www.w3.org/2000/svg">
<path d="M47.6146 411.849L1552.39 411.849" stroke="#2D2F2F" stroke-width="4"/>
<path d="M47.6146 588.151L1552.39 588.151" stroke="#2D2F2F" stroke-width="4"/>
<path d="M49.6146 410.807V589.812" stroke="#2D2F2F" stroke-width="3.99338"/>
<path d="M1550.39 411.854V587.859" stroke="#2D2F2F" stroke-width="3.99326"/>
<path d="M118.359 500L647.364 500" stroke="#2D2F2F" stroke-width="1.99835"/>
<path d="M485.516 527.323H685.052" stroke="#2D2F2F" stroke-width="2"/>
<path d="M789.802 499.005L991.599 499.005" stroke="#2D2F2F" stroke-width="2"/>
<path d="M1013.61 527.146H1225.61" stroke="#2D2F2F" stroke-width="1.99544"/>
<path d="M296.823 411.411V501.052" stroke="#2D2F2F" stroke-width="2"/>
<path d="M516.802 412.859V499.536" stroke="#2D2F2F" stroke-width="2"/>
<path d="M647.797 413.339V501.047" stroke="#2D2F2F" stroke-width="2"/>
<path d="M719.802 411.87L719.802 499.516" stroke="#2D2F2F" stroke-width="2"/>
<path d="M1054.59 412.807L1054.59 471.818" stroke="#2D2F2F" stroke-width="1.99156"/>
<path d="M1281.59 409.865V498.453" stroke="#2D2F2F" stroke-width="2"/>
<path d="M296.828 526.344V587.901" stroke="#2D2F2F" stroke-width="2"/>
<path d="M396.802 526.344V586.901" stroke="#2D2F2F" stroke-width="2"/>
<path d="M485.51 527.156V586.792" stroke="#2D2F2F" stroke-width="2"/>
<path d="M521.411 527.156L521.411 587.906" stroke="#2D2F2F" stroke-width="2"/>
<path d="M550.411 527.297V586.901" stroke="#2D2F2F" stroke-width="2"/>
<path d="M589.411 527.312V586.901" stroke="#2D2F2F" stroke-width="2"/>
<path d="M618.505 527.328V586.901" stroke="#2D2F2F" stroke-width="2"/>
<path d="M685.052 526.323V588.182" stroke="#2D2F2F" stroke-width="2"/>
<path d="M859.708 526.609V588.458" stroke="#2D2F2F" stroke-width="2"/>
<path d="M1323.59 526.349L1323.59 588.031" stroke="#2D2F2F" stroke-width="2"/>
<path d="M1281.6 526.323V587.151" stroke="#2D2F2F" stroke-width="2"/>
<path d="M1226.09 526.219V587.76" stroke="#2D2F2F" stroke-width="2"/>
<path d="M1193.1 527.74V587.745" stroke="#2D2F2F" stroke-width="1.99067"/>
<path d="M1122.6 528V588.005" stroke="#2D2F2F" stroke-width="1.98501"/>
<path d="M1054.59 525.911V586.786" stroke="#2D2F2F" stroke-width="2"/>
<path d="M991.599 526.323L991.599 588.167" stroke="#2D2F2F" stroke-width="2"/>
<path d="M959.615 527.151V588.026" stroke="#2D2F2F" stroke-width="2"/>
<path d="M1281.6 497.448L1481.34 498.802" stroke="#2D2F2F" stroke-width="2"/>
<path d="M1481.34 469.526L1550.35 469.526" stroke="#2D2F2F" stroke-width="1.99909"/>
<path d="M1481.34 586.193V411.401" stroke="#2D2F2F" stroke-width="2"/>
<path d="M688.031 411.844V473.698" stroke="#2D2F2F" stroke-width="2"/>
<path d="M685.521 527.469H991.521" stroke="#2D2F2F" stroke-width="1.99949"/>
<path d="M396.807 413.302V499.979" stroke="#2D2F2F" stroke-width="2"/>
<path d="M485.516 412.859V499.536" stroke="#2D2F2F" stroke-width="2"/>
<path d="M554.802 412.839V499.516" stroke="#2D2F2F" stroke-width="2"/>
<path d="M582.302 413.359V500.036" stroke="#2D2F2F" stroke-width="2"/>
<path d="M621.417 412.839V499.516" stroke="#2D2F2F" stroke-width="2"/>
<path d="M821.802 527.146V588.995" stroke="#2D2F2F" stroke-width="2"/>
<path d="M788.802 526.339V588.182" stroke="#2D2F2F" stroke-width="2"/>
<path d="M753.802 527.146V588.995" stroke="#2D2F2F" stroke-width="2"/>
<path d="M721.052 526.339V588.182" stroke="#2D2F2F" stroke-width="2"/>
<path d="M890.203 527.156V587.906" stroke="#2D2F2F" stroke-width="2"/>
<path d="M923.615 527.146V588.995" stroke="#2D2F2F" stroke-width="2"/>
<path d="M1013.6 526.328V587.901" stroke="#2D2F2F" stroke-width="2"/>
<path d="M991.594 411.333V499.984" stroke="#2D2F2F" stroke-width="2"/>
<path d="M922.802 411.339L923.802 499.333" stroke="#2D2F2F" stroke-width="1.99645"/>
<path d="M858.708 411.828L859.708 499.823" stroke="#2D2F2F" stroke-width="1.99645"/>
<path d="M821.802 410.292L822.802 498.292" stroke="#2D2F2F" stroke-width="1.99645"/>
<path d="M789.802 411.328L790.802 499.323" stroke="#2D2F2F" stroke-width="1.99645"/>
<path d="M1443.59 497.443V409.849" stroke="#2D2F2F" stroke-width="2"/>
<path d="M1499.99 526.604V469.833" stroke="#2D2F2F" stroke-width="2"/>
<path d="M118.359 527.339L396.37 527.339" stroke="#2D2F2F" stroke-width="1.99686"/>
<path d="M442.516 412.807V499.479" stroke="#2D2F2F" stroke-width="2"/>
<path d="M346.818 413.302V499.979" stroke="#2D2F2F" stroke-width="2"/>
<path d="M85.8333 410.297V586.307" stroke="#2D2F2F" stroke-width="1.99451"/>
<path d="M119.349 411.333V500.974" stroke="#2D2F2F" stroke-width="2"/>
<path d="M253.823 410.401V500.042" stroke="#2D2F2F" stroke-width="2"/>
<path d="M207.823 410.807V500.448" stroke="#2D2F2F" stroke-width="2"/>
<path d="M163.589 411.333V500.974" stroke="#2D2F2F" stroke-width="2"/>
<path d="M253.828 526.615V588.172" stroke="#2D2F2F" stroke-width="2"/>
<path d="M207.828 526.615V588.172" stroke="#2D2F2F" stroke-width="2"/>
<path d="M163.589 527.474V589.031" stroke="#2D2F2F" stroke-width="2"/>
<path d="M119.354 526.615V588.172" stroke="#2D2F2F" stroke-width="2"/>
<path d="M346.812 527.151V588.708" stroke="#2D2F2F" stroke-width="2"/>
<path d="M991.599 471.13H1225.61" stroke="#2D2F2F" stroke-width="1.99587"/>
<path d="M1090.59 412.807L1090.59 471.818" stroke="#2D2F2F" stroke-width="1.99156"/>
<path d="M1122.59 412.865L1122.59 471.875" stroke="#2D2F2F" stroke-width="1.99156"/>
<path d="M1157.84 411.88V470.891" stroke="#2D2F2F" stroke-width="1.99156"/>
<path d="M1193.09 412.844L1193.09 471.854" stroke="#2D2F2F" stroke-width="1.99156"/>
<path d="M1226.09 411.417V472.073" stroke="#2D2F2F" stroke-width="2"/>
<path d="M1481.34 527.146H1550.35" stroke="#2D2F2F" stroke-width="1.99909"/>
<path d="M1500 497.792H1550.01" stroke="#2D2F2F" stroke-width="1.98511"/>
<path d="M1404.59 497.443V409.849" stroke="#2D2F2F" stroke-width="2"/>
<path d="M1365.59 497.443V409.849" stroke="#2D2F2F" stroke-width="2"/>
<path d="M1323.59 497.443V409.849" stroke="#2D2F2F" stroke-width="2"/>
<path d="M1280.6 527.146H1443.6" stroke="#2D2F2F" stroke-width="2"/>
<path d="M1366.59 528.427L1366.59 590.109" stroke="#2D2F2F" stroke-width="2"/>
<path d="M1405.59 528.427L1405.59 590.109" stroke="#2D2F2F" stroke-width="2"/>
<path d="M1443.59 526.219L1443.59 587.901" stroke="#2D2F2F" stroke-width="2"/>
<path d="M1226.1 553.146H1281.6" stroke="#2D2F2F" stroke-width="2"/>
</svg>
