<svg width="1600" height="1000" viewBox="0 0 1600 1000" fill="none" xmlns="http://www.w3.org/2000/svg">
<mask id="mask0_0_1" style="mask-type:luminance" maskUnits="userSpaceOnUse" x="372" y="346" width="137" height="86">
<path d="M372.323 346.375H508.922V431.995H372.323V346.375Z" fill="white"/>
</mask>
<g mask="url(#mask0_0_1)">
<path d="M372.323 346.375H508.776V431.995H372.323V346.375Z" fill="#FFF9E2"/>
</g>
<mask id="mask1_0_1" style="mask-type:luminance" maskUnits="userSpaceOnUse" x="510" y="346" width="137" height="87">
<path d="M510.802 346.401H646.802V432.016H510.802V346.401Z" fill="white"/>
</mask>
<g mask="url(#mask1_0_1)">
<path d="M510.802 346.401H646.922V432.016H510.802V346.401Z" fill="#FFF9E2"/>
</g>
<path d="M47.6146 344.891L1552.39 344.891" stroke="#2D2F2F" stroke-width="4"/>
<path d="M47.6146 521.193L1552.39 521.193" stroke="#2D2F2F" stroke-width="4"/>
<path d="M49.6094 343.844V523.146" stroke="#2D2F2F" stroke-width="4"/>
<path d="M1550.39 344.891V521.198" stroke="#2D2F2F" stroke-width="4"/>
<path d="M122.062 433.031L647.802 433.042" stroke="#2D2F2F" stroke-width="2"/>
<path d="M123.062 460.365H680.875" stroke="#2D2F2F" stroke-width="2"/>
<path d="M958.615 432.042L1366.84 432.042" stroke="#2D2F2F" stroke-width="2"/>
<path d="M959.12 459.365L1366.84 458.365" stroke="#2D2F2F" stroke-width="2"/>
<path d="M122.062 344.891V432.021" stroke="#2D2F2F" stroke-width="2"/>
<path d="M187.125 345.365L187.125 432.052" stroke="#2D2F2F" stroke-width="2"/>
<path d="M287.12 343.974L287.12 432.557" stroke="#2D2F2F" stroke-width="2"/>
<path d="M371.12 346.38V433.052" stroke="#2D2F2F" stroke-width="2"/>
<path d="M510.12 346.401V433.078" stroke="#2D2F2F" stroke-width="2"/>
<path d="M647.797 346.38V434.089" stroke="#2D2F2F" stroke-width="2"/>
<path d="M719.802 344.911L719.802 432.557" stroke="#2D2F2F" stroke-width="2"/>
<path d="M958.615 344.922L959.615 433.073" stroke="#2D2F2F" stroke-width="2"/>
<path d="M1067.09 344.927L1067.59 432.042" stroke="#2D2F2F" stroke-width="2"/>
<path d="M1104.8 344.917V432.047" stroke="#2D2F2F" stroke-width="2"/>
<path d="M1160.79 344.443V432.052" stroke="#2D2F2F" stroke-width="2"/>
<path d="M1253.99 344.411L1254.49 432.563" stroke="#2D2F2F" stroke-width="2"/>
<path d="M1328.99 344.969L1328.99 432.562" stroke="#2D2F2F" stroke-width="2"/>
<path d="M1438.84 344.891L1438.84 458.37" stroke="#2D2F2F" stroke-width="2"/>
<path d="M122.057 459.391L122.057 521.203" stroke="#2D2F2F" stroke-width="2"/>
<path d="M187.13 460.516V520.089" stroke="#2D2F2F" stroke-width="2"/>
<path d="M258.13 460.401L258.13 520.943" stroke="#2D2F2F" stroke-width="2"/>
<path d="M287.12 460.51V520.943" stroke="#2D2F2F" stroke-width="2"/>
<path d="M371.12 460.37V520.943" stroke="#2D2F2F" stroke-width="2"/>
<path d="M441.115 460.432L441.115 520.089" stroke="#2D2F2F" stroke-width="2"/>
<path d="M475.047 460.448V520.089" stroke="#2D2F2F" stroke-width="2"/>
<path d="M510.115 460.484L510.115 521.234" stroke="#2D2F2F" stroke-width="2"/>
<path d="M543.047 460.484V520.089" stroke="#2D2F2F" stroke-width="2"/>
<path d="M577.047 460.5V520.089" stroke="#2D2F2F" stroke-width="2"/>
<path d="M611.047 460.516V520.089" stroke="#2D2F2F" stroke-width="2"/>
<path d="M645.047 459.432V520.089" stroke="#2D2F2F" stroke-width="2"/>
<path d="M855.802 458.24V520.083" stroke="#2D2F2F" stroke-width="2"/>
<path d="M1366.33 458.339V520.089" stroke="#2D2F2F" stroke-width="2"/>
<path d="M1328.99 458.385L1328.99 521.073" stroke="#2D2F2F" stroke-width="2"/>
<path d="M1291.99 459.391V521.203" stroke="#2D2F2F" stroke-width="2"/>
<path d="M1254.4 459.38L1254.4 521.224" stroke="#2D2F2F" stroke-width="2"/>
<path d="M1216.79 459.37V521.151" stroke="#2D2F2F" stroke-width="2"/>
<path d="M1179.79 459.37L1179.79 521.135" stroke="#2D2F2F" stroke-width="2"/>
<path d="M1143.79 458.385V521.12" stroke="#2D2F2F" stroke-width="2"/>
<path d="M1104.8 458.385V520.089" stroke="#2D2F2F" stroke-width="2"/>
<path d="M1067.59 458.37L1067.59 521.073" stroke="#2D2F2F" stroke-width="2"/>
<path d="M991.599 459.365L991.599 521.208" stroke="#2D2F2F" stroke-width="2"/>
<path d="M959.615 458.24V521.068" stroke="#2D2F2F" stroke-width="2"/>
<path d="M1401.34 457.255V521.083" stroke="#2D2F2F" stroke-width="2"/>
<path d="M1476.84 457.24V521.068" stroke="#2D2F2F" stroke-width="2"/>
<path d="M855.797 344.969L855.672 397.146" stroke="#2D2F2F" stroke-width="2"/>
<path d="M854.802 397.141L958.615 397.141" stroke="#2D2F2F" stroke-width="2"/>
<path d="M1328.01 387.932H1438.84" stroke="#2D2F2F" stroke-width="2"/>
<path d="M1439.55 395.958L1509.66 396.047" stroke="#2D2F2F" stroke-width="2"/>
<path d="M1509.66 458.229V394.948" stroke="#2D2F2F" stroke-width="2"/>
<path d="M1438.84 457.24L1550.39 457.24" stroke="#2D2F2F" stroke-width="2"/>
<path d="M1366.34 457.24H1439.55" stroke="#2D2F2F" stroke-width="2"/>
<path d="M1366.34 465.781V387.927" stroke="#2D2F2F" stroke-width="2"/>
<path d="M1212 344.406V432.021" stroke="#2D2F2F" stroke-width="2"/>
<path d="M817.802 473.474V523.146" stroke="#2D2F2F" stroke-width="2"/>
<path d="M816.932 473.474H855.802" stroke="#2D2F2F" stroke-width="2"/>
<path d="M817.797 346.38V384.063" stroke="#2D2F2F" stroke-width="2"/>
<path d="M817.802 383.057L855.672 383.057" stroke="#2D2F2F" stroke-width="2"/>
<path d="M688.031 344.885V406.734" stroke="#2D2F2F" stroke-width="2"/>
<path d="M331.052 655.109L611.052 655.109" stroke="#2D2F2F" stroke-width="4"/>
<path d="M612.052 639.37H728.943" stroke="#2D2F2F" stroke-width="4"/>
<path d="M728.932 523.391V639.375" stroke="#2D2F2F" stroke-width="4"/>
<path d="M333.042 581.198V656.995" stroke="#2D2F2F" stroke-width="4"/>
<path d="M409.005 581.193H333.208" stroke="#2D2F2F" stroke-width="4"/>
<path d="M409.016 581.188V522.203" stroke="#2D2F2F" stroke-width="4"/>
<path d="M612.047 656.984V637.359" stroke="#2D2F2F" stroke-width="4"/>
<path d="M855.802 459.24L959.615 459.24" stroke="#2D2F2F" stroke-width="2"/>
<path d="M566.351 402.185H561.392V378.394H575.017V382.519H566.351V388.664H574.434V392.769H566.351V402.185Z" fill="black"/>
<path d="M594.663 402.185H578.017V398.685L583.996 392.644C585.757 390.842 586.913 389.592 587.454 388.894C587.996 388.185 588.382 387.534 588.621 386.935C588.871 386.342 588.996 385.722 588.996 385.081C588.996 384.123 588.731 383.414 588.204 382.956C587.673 382.487 586.975 382.248 586.1 382.248C585.168 382.248 584.267 382.467 583.392 382.894C582.527 383.31 581.626 383.909 580.684 384.685L577.954 381.456C579.121 380.456 580.085 379.748 580.85 379.331C581.626 378.914 582.475 378.597 583.392 378.373C584.309 378.154 585.329 378.039 586.454 378.039C587.939 378.039 589.251 378.321 590.392 378.873C591.527 379.414 592.413 380.175 593.038 381.144C593.663 382.118 593.975 383.237 593.975 384.498C593.975 385.597 593.777 386.623 593.392 387.581C593.017 388.539 592.423 389.529 591.621 390.539C590.814 391.539 589.392 392.977 587.35 394.852L584.288 397.727V397.956H594.663V402.185Z" fill="black"/>
<path d="M432.762 400.362H427.803V376.571H441.428V380.696H432.762V386.842H440.845V390.946H432.762V400.362Z" fill="black"/>
<path d="M460.137 381.883C460.137 383.373 459.683 384.633 458.782 385.675C457.876 386.717 456.616 387.435 454.991 387.821V387.925C456.907 388.164 458.355 388.748 459.345 389.675C460.345 390.607 460.845 391.857 460.845 393.425C460.845 395.717 460.012 397.503 458.345 398.779C456.689 400.06 454.324 400.696 451.241 400.696C448.657 400.696 446.366 400.269 444.366 399.404V395.112C445.282 395.586 446.293 395.967 447.407 396.258C448.517 396.55 449.616 396.696 450.699 396.696C452.35 396.696 453.574 396.42 454.366 395.862C455.157 395.295 455.553 394.383 455.553 393.133C455.553 392.024 455.095 391.232 454.178 390.758C453.272 390.289 451.824 390.05 449.824 390.05H448.032V386.196H449.866C451.709 386.196 453.058 385.961 453.907 385.487C454.751 385.003 455.178 384.17 455.178 382.987C455.178 381.196 454.053 380.3 451.803 380.3C451.022 380.3 450.225 380.435 449.407 380.696C448.6 380.946 447.704 381.394 446.72 382.029L444.407 378.571C446.574 377.003 449.157 376.217 452.157 376.217C454.626 376.217 456.574 376.717 457.991 377.717C459.418 378.717 460.137 380.107 460.137 381.883Z" fill="black"/>
</svg>
