<svg width="1600" height="1000" viewBox="0 0 1600 1000" fill="none" xmlns="http://www.w3.org/2000/svg">
<path d="M470.719 943.219L1127.28 943.219" stroke="black" stroke-width="4"/>
<path d="M470.719 769.474H800.651" stroke="black" stroke-width="4"/>
<path d="M1127.27 56.7916L1125.27 943.224" stroke="black" stroke-width="4"/>
<path d="M800.651 56.7864L798.651 769.479" stroke="black" stroke-width="4"/>
<path d="M798.651 56.7813L1127.28 58.7813" stroke="black" stroke-width="4"/>
<path d="M472.714 943.234V769.469" stroke="black" stroke-width="4"/>
<path d="M470.719 815.688L796.76 815.687" stroke="black" stroke-width="2"/>
<path d="M895.76 815.688L1125.28 815.687" stroke="black" stroke-width="2"/>
<path d="M1063.98 815.693V943.224" stroke="black" stroke-width="2"/>
<path d="M1024.76 815.719V943.245" stroke="black" stroke-width="2"/>
<path d="M924.755 815.693L924.755 943.224" stroke="black" stroke-width="2"/>
<path d="M796.755 815.693V943.224" stroke="black" stroke-width="2"/>
<path d="M741.953 815.719L741.953 943.245" stroke="black" stroke-width="2"/>
<path d="M586.953 815.719L586.953 943.245" stroke="black" stroke-width="2"/>
<path d="M552.911 815.719V922.688" stroke="black" stroke-width="2"/>
<path d="M552.911 867.089L491.307 867.089" stroke="black" stroke-width="2"/>
<path d="M552.906 922.677L470.714 922.677" stroke="black" stroke-width="2"/>
<path d="M796.74 896.198H741.953" stroke="black" stroke-width="2"/>
<path d="M796.24 850.198H741.448" stroke="black" stroke-width="2"/>
<path d="M1125.27 769.474H1031.63" stroke="black" stroke-width="2"/>
<path d="M1125.27 722.474H1031.63" stroke="black" stroke-width="2"/>
<path d="M1032.63 769.474V722.484" stroke="black" stroke-width="2"/>
<path d="M906.932 815.682L906.932 563.286" stroke="black" stroke-width="2"/>
<path d="M906.917 654.495L798.635 654.495" stroke="black" stroke-width="2"/>
<path d="M906.917 564.286L798.635 564.286" stroke="black" stroke-width="2"/>
<path d="M1125.27 653.495L1061.98 653.495" stroke="black" stroke-width="2"/>
<path d="M1127.27 606.495H1061.98" stroke="black" stroke-width="2"/>
<path d="M1125.27 571.292L1076.52 571.292" stroke="black" stroke-width="2"/>
<path d="M977.792 542.188H798.641" stroke="black" stroke-width="2"/>
<path d="M1127.28 542.188H1011.85" stroke="black" stroke-width="2"/>
<path d="M1127.28 379.188H1011.85" stroke="black" stroke-width="2"/>
<path d="M1127.28 262.448H976.802" stroke="black" stroke-width="2"/>
<path d="M1012.85 542.182L1011.85 262.443" stroke="black" stroke-width="2"/>
<path d="M976.792 381.188H800.641" stroke="black" stroke-width="2"/>
<path d="M977.807 262.443V58.7864" stroke="black" stroke-width="2"/>
<path d="M942.802 381.177L942.802 96.3073" stroke="black" stroke-width="2"/>
<path d="M942.792 96.3125H800.641" stroke="black" stroke-width="2"/>
<path d="M941.792 159.115H799.641" stroke="black" stroke-width="2"/>
<path d="M942.792 267.115L902.641 267.115" stroke="black" stroke-width="2"/>
<path d="M869.208 267.115H823.208" stroke="black" stroke-width="2"/>
<path d="M823.203 299.969V159.115" stroke="black" stroke-width="2"/>
<path d="M823.208 298.974L800.672 298.974" stroke="black" stroke-width="2"/>
<path d="M941.792 188.453L901.641 188.453" stroke="black" stroke-width="2"/>
<path d="M901.646 188.448V159.109" stroke="black" stroke-width="2"/>
<path d="M941.792 137.516L901.641 137.516" stroke="black" stroke-width="2"/>
<path d="M977.802 542.182L977.328 380.193" stroke="black" stroke-width="2"/>
<path d="M977.802 491.385L827.042 491.385" stroke="black" stroke-width="2"/>
<path d="M869.203 542.182V491.385" stroke="black" stroke-width="2"/>
<path d="M1062 654.495V606.495" stroke="black" stroke-width="2"/>
<path d="M1076.53 606.49V542.177" stroke="black" stroke-width="2"/>
<path d="M1063.98 867.089H1024.76" stroke="black" stroke-width="2"/>
<path d="M1125.27 855.891L1063.97 855.891" stroke="black" stroke-width="2"/>
<path d="M1087.59 722.469V653.49" stroke="black" stroke-width="2"/>
<mask id="mask0_11_79" style="mask-type:luminance" maskUnits="userSpaceOnUse" x="588" y="817" width="154" height="124">
<path d="M588.365 817.125H741.052V940.781H588.365V817.125Z" fill="white"/>
</mask>
<g mask="url(#mask0_11_79)">
<path d="M588.365 817.125H741V940.781H588.365V817.125Z" fill="#FFF9E2"/>
</g>
<path d="M644.658 868.952L642.928 863.286H634.262L632.533 868.952H627.095L635.491 845.057H641.658L650.095 868.952H644.658ZM641.72 859.057C640.137 853.921 639.241 851.015 639.033 850.348C638.835 849.682 638.689 849.15 638.595 848.744C638.246 850.135 637.225 853.572 635.533 859.057H641.72Z" fill="black"/>
<path d="M665.59 868.952L664.923 866.619H664.652C664.121 867.468 663.366 868.129 662.381 868.598C661.407 869.057 660.298 869.286 659.048 869.286C656.923 869.286 655.308 868.718 654.215 867.577C653.131 866.426 652.59 864.775 652.59 862.619V850.765H657.569V861.39C657.569 862.697 657.798 863.682 658.256 864.348C658.725 865.004 659.47 865.327 660.485 865.327C661.871 865.327 662.871 864.864 663.485 863.932C664.11 863.004 664.423 861.463 664.423 859.307V850.765H669.402V868.952H665.59Z" fill="black"/>
<path d="M679.556 868.952H674.598V843.619H679.556V868.952Z" fill="black"/>
<path d="M696.331 868.952L695.373 866.473H695.227C694.394 867.531 693.529 868.265 692.644 868.682C691.769 869.083 690.623 869.286 689.206 869.286C687.456 869.286 686.071 868.786 685.06 867.786C684.06 866.786 683.56 865.364 683.56 863.515C683.56 861.588 684.232 860.161 685.581 859.244C686.941 858.327 688.982 857.822 691.706 857.723L694.852 857.619V856.827C694.852 854.984 693.904 854.057 692.019 854.057C690.571 854.057 688.863 854.494 686.894 855.369L685.248 852.015C687.342 850.932 689.67 850.39 692.227 850.39C694.67 850.39 696.54 850.926 697.831 851.994C699.133 853.051 699.79 854.661 699.79 856.827V868.952H696.331ZM694.852 860.515L692.935 860.577C691.488 860.635 690.415 860.9 689.706 861.369C689.008 861.843 688.665 862.572 688.665 863.557C688.665 864.947 689.461 865.64 691.06 865.64C692.211 865.64 693.128 865.317 693.81 864.661C694.503 863.994 694.852 863.114 694.852 862.015V860.515Z" fill="black"/>
<path d="M634.194 914.952H629.236V904.327C629.236 903.01 629.012 902.025 628.569 901.369C628.121 900.718 627.434 900.39 626.507 900.39C625.225 900.39 624.298 900.859 623.715 901.786C623.142 902.718 622.861 904.254 622.861 906.39V914.952H617.902V896.765H621.694L622.361 899.077H622.632C623.132 898.244 623.84 897.593 624.757 897.119C625.673 896.65 626.725 896.411 627.923 896.411C630.642 896.411 632.491 897.301 633.465 899.077H633.902C634.387 898.234 635.1 897.577 636.048 897.119C637.007 896.65 638.079 896.411 639.277 896.411C641.329 896.411 642.887 896.942 643.944 897.994C645.012 899.051 645.548 900.744 645.548 903.077V914.952H640.569V904.327C640.569 903.01 640.345 902.025 639.902 901.369C639.454 900.718 638.762 900.39 637.819 900.39C636.611 900.39 635.699 900.827 635.09 901.702C634.491 902.567 634.194 903.942 634.194 905.827V914.952Z" fill="black"/>
<path d="M662.191 914.952L661.233 912.473H661.087C660.253 913.531 659.389 914.265 658.503 914.682C657.628 915.083 656.483 915.286 655.066 915.286C653.316 915.286 651.93 914.786 650.92 913.786C649.92 912.786 649.42 911.364 649.42 909.515C649.42 907.588 650.092 906.161 651.441 905.244C652.8 904.327 654.842 903.822 657.566 903.723L660.712 903.619V902.827C660.712 900.984 659.764 900.057 657.878 900.057C656.43 900.057 654.722 900.494 652.753 901.369L651.108 898.015C653.201 896.932 655.529 896.39 658.087 896.39C660.529 896.39 662.399 896.926 663.691 897.994C664.993 899.051 665.649 900.661 665.649 902.827V914.952H662.191ZM660.712 906.515L658.795 906.577C657.347 906.635 656.274 906.9 655.566 907.369C654.868 907.843 654.524 908.572 654.524 909.557C654.524 910.947 655.321 911.64 656.92 911.64C658.071 911.64 658.988 911.317 659.67 910.661C660.363 909.994 660.712 909.114 660.712 908.015V906.515Z" fill="black"/>
<path d="M669.3 922.952C668.024 922.952 666.936 922.817 666.03 922.557V918.64C666.78 918.848 667.55 918.952 668.342 918.952C669.186 918.952 669.8 918.713 670.175 918.244C670.561 917.786 670.759 917.098 670.759 916.182V896.765H675.717V916.932C675.717 918.859 675.155 920.348 674.03 921.39C672.915 922.432 671.342 922.952 669.3 922.952ZM670.55 892.057C670.55 890.432 671.451 889.619 673.259 889.619C675.05 889.619 675.946 890.432 675.946 892.057C675.946 892.822 675.717 893.421 675.259 893.848C674.811 894.281 674.144 894.494 673.259 894.494C671.451 894.494 670.55 893.682 670.55 892.057Z" fill="black"/>
<path d="M684.888 905.827C684.888 907.619 685.18 908.984 685.763 909.911C686.357 910.827 687.326 911.286 688.659 911.286C689.977 911.286 690.93 910.827 691.513 909.911C692.096 908.994 692.388 907.635 692.388 905.827C692.388 904.025 692.096 902.671 691.513 901.765C690.93 900.864 689.971 900.411 688.638 900.411C687.305 900.411 686.346 900.864 685.763 901.765C685.18 902.656 684.888 904.01 684.888 905.827ZM697.471 905.827C697.471 908.786 696.685 911.109 695.117 912.786C693.56 914.452 691.388 915.286 688.596 915.286C686.846 915.286 685.305 914.906 683.971 914.14C682.638 913.364 681.607 912.26 680.888 910.827C680.18 909.4 679.826 907.734 679.826 905.827C679.826 902.859 680.596 900.546 682.138 898.89C683.69 897.239 685.878 896.411 688.701 896.411C690.435 896.411 691.971 896.796 693.305 897.557C694.648 898.322 695.68 899.411 696.388 900.827C697.107 902.244 697.471 903.911 697.471 905.827Z" fill="black"/>
<path d="M711.731 896.411C712.398 896.411 712.95 896.463 713.398 896.557L713.023 901.223C712.617 901.114 712.132 901.057 711.564 901.057C709.981 901.057 708.742 901.468 707.856 902.286C706.965 903.093 706.523 904.223 706.523 905.682V914.952H701.564V896.765H705.314L706.064 899.807H706.294C706.861 898.796 707.627 897.973 708.585 897.348C709.544 896.723 710.59 896.411 711.731 896.411Z" fill="black"/>
</svg>
